<svg width="50" height="50" viewBox="0 0 50 50" fill="none" xmlns="http://www.w3.org/2000/svg">
<path d="M18.75 6.25H25V18.75H18.75C17.0924 18.75 15.5027 18.0915 14.3306 16.9194C13.1585 15.7473 12.5 14.1576 12.5 12.5C12.5 10.8424 13.1585 9.25268 14.3306 8.08058C15.5027 6.90848 17.0924 6.25 18.75 6.25Z" fill="#F4511E"/>
<path d="M31.25 18.75H25V6.25H31.25C32.9076 6.25 34.4973 6.90848 35.6694 8.08058C36.8415 9.25268 37.5 10.8424 37.5 12.5C37.5 14.1576 36.8415 15.7473 35.6694 16.9194C34.4973 18.0915 32.9076 18.75 31.25 18.75Z" fill="#FF8A65"/>
<path d="M25 25C25 28.4518 27.7982 31.25 31.25 31.25C34.7018 31.25 37.5 28.4518 37.5 25C37.5 21.5482 34.7018 18.75 31.25 18.75C27.7982 18.75 25 21.5482 25 25Z" fill="#29B6F6"/>
<path d="M18.75 18.75H25V31.25H18.75C17.0924 31.25 15.5027 30.5915 14.3306 29.4194C13.1585 28.2473 12.5 26.6576 12.5 25C12.5 23.3424 13.1585 21.7527 14.3306 20.5806C15.5027 19.4085 17.0924 18.75 18.75 18.75Z" fill="#7C4DFF"/>
<path d="M18.75 31.25H25V37.5C25 39.1576 24.3415 40.7473 23.1694 41.9194C21.9973 43.0915 20.4076 43.75 18.75 43.75C17.0924 43.75 15.5027 43.0915 14.3306 41.9194C13.1585 40.7473 12.5 39.1576 12.5 37.5C12.5 35.8424 13.1585 34.2527 14.3306 33.0806C15.5027 31.9085 17.0924 31.25 18.75 31.25Z" fill="#00E676"/>
</svg>
