<svg width="50" height="50" viewBox="0 0 50 50" fill="none" xmlns="http://www.w3.org/2000/svg">
<g clip-path="url(#clip0_525_51)">
<path d="M38.2812 0H11.7188C5.24666 0 0 5.24666 0 11.7188V38.2812C0 44.7533 5.24666 50 11.7188 50H38.2812C44.7533 50 50 44.7533 50 38.2812V11.7188C50 5.24666 44.7533 0 38.2812 0Z" fill="#F03C2E"/>
<mask id="mask0_525_51" style="mask-type:luminance" maskUnits="userSpaceOnUse" x="5" y="5" width="40" height="40">
<path d="M5.46875 5.46875H44.5312V44.5312H5.46875V5.46875Z" fill="white"/>
</mask>
<g mask="url(#mask0_525_51)">
<path d="M43.7933 23.2605L26.7388 6.20596C26.3872 5.85395 25.939 5.6142 25.451 5.51709C24.963 5.41998 24.4572 5.46988 23.9976 5.66045C23.6925 5.78706 23.4153 5.97241 23.1818 6.20596L19.6417 9.746L24.1339 14.2382C25.1788 13.872 26.3751 14.1222 27.2075 14.9548C27.6039 15.3518 27.8805 15.8522 28.0059 16.399C28.1314 16.9457 28.1004 17.5168 27.9167 18.0468L32.2466 22.3767C33.2941 22.0153 34.5025 22.2483 35.3386 23.087C35.7575 23.5056 36.0427 24.0392 36.1582 24.62C36.2736 25.2009 36.2141 25.8029 35.9872 26.3499C35.6831 27.0833 35.1002 27.6659 34.3666 27.9696C33.633 28.2734 32.8089 28.2734 32.0753 27.9696C31.712 27.819 31.382 27.5985 31.104 27.3204C30.2251 26.4415 30.0079 25.1476 30.4523 24.0647L26.4142 20.0267V30.653C26.7073 30.798 26.9752 30.9893 27.2075 31.2194C27.7689 31.7808 28.0843 32.5422 28.0843 33.3361C28.0843 34.1301 27.7689 34.8915 27.2075 35.4528C26.6462 36.0142 25.8848 36.3296 25.0908 36.3296C24.2969 36.3296 23.5355 36.0142 22.9741 35.4528C22.5552 35.0343 22.2698 34.5009 22.1542 33.9202C22.0385 33.3394 22.0978 32.7374 22.3245 32.1903C22.4751 31.8271 22.6958 31.4972 22.9741 31.2194C23.2634 30.9313 23.5845 30.7128 23.9544 30.5663V19.8411C23.5873 19.6911 23.254 19.4691 22.9741 19.1882C22.5538 18.7683 22.2681 18.2328 22.1533 17.6499C22.0385 17.0671 22.0999 16.4632 22.3296 15.9153L17.8986 11.487L6.20422 23.169C5.85217 23.5209 5.61238 23.9692 5.51521 24.4573C5.41804 24.9454 5.46784 25.4514 5.65832 25.9112C5.78499 26.2165 5.97048 26.4938 6.20422 26.7274L23.2599 43.7806C23.4934 44.0141 23.7706 44.1995 24.0757 44.3261C24.6922 44.581 25.3846 44.581 26.0011 44.3261C26.3062 44.1995 26.5834 44.0141 26.8169 43.7806L43.7933 26.8312C44.027 26.5976 44.2125 26.3202 44.339 26.015C44.4656 25.7097 44.5307 25.3825 44.5308 25.0521C44.5308 24.7216 44.4656 24.3943 44.3391 24.089C44.2125 23.7837 44.0271 23.5064 43.7933 23.2728" fill="white"/>
</g>
</g>
<defs>
<clipPath id="clip0_525_51">
<rect width="50" height="50" fill="white"/>
</clipPath>
</defs>
</svg>
