<svg width="50" height="50" viewBox="0 0 50 50" fill="none" xmlns="http://www.w3.org/2000/svg">
<g clip-path="url(#clip0_481_852)">
<path d="M38.2812 0H11.7188C5.24666 0 0 5.24666 0 11.7188V38.2812C0 44.7533 5.24666 50 11.7188 50H38.2812C44.7533 50 50 44.7533 50 38.2812V11.7188C50 5.24666 44.7533 0 38.2812 0Z" fill="#F0DB4F"/>
<path d="M13.1467 41.7835L16.9729 39.4679C17.7111 40.7767 18.3826 41.8841 19.9934 41.8841C21.5373 41.8841 22.5107 41.2802 22.5107 38.931V22.9548H27.2096V38.9974C27.2096 43.864 24.3568 46.0792 20.1947 46.0792C16.4359 46.0792 14.2541 44.1325 13.1465 41.7831M29.7617 41.28L33.5875 39.0649C34.5947 40.7097 35.9037 41.9179 38.2193 41.9179C40.1664 41.9179 41.4078 40.9444 41.4078 39.6019C41.4078 37.9909 40.1324 37.4202 37.9844 36.4808L36.81 35.9771C33.4199 34.5341 31.1711 32.7216 31.1711 28.8954C31.1711 25.3712 33.8563 22.686 38.0518 22.686C41.0389 22.686 43.1869 23.7267 44.7307 26.4452L41.0723 28.7946C40.2666 27.3515 39.3943 26.781 38.0518 26.781C36.6756 26.781 35.8029 27.6536 35.8029 28.7946C35.8029 30.2042 36.6756 30.7749 38.6893 31.6478L39.8639 32.1511C43.8578 33.863 46.1066 35.6079 46.1066 39.5347C46.1066 43.764 42.784 46.0796 38.3201 46.0796C33.957 46.0796 31.1377 43.9987 29.7617 41.28Z" fill="white"/>
</g>
<defs>
<clipPath id="clip0_481_852">
<rect width="50" height="50" fill="white"/>
</clipPath>
</defs>
</svg>
