<svg width="50" height="50" viewBox="0 0 50 50" fill="none" xmlns="http://www.w3.org/2000/svg">
<path d="M20.541 4.1665C18.9608 4.1665 17.4452 4.79426 16.3278 5.91166C15.2104 7.02906 14.5827 8.54459 14.5827 10.1248V13.6248H23.5202C24.3327 13.6248 24.9993 14.8123 24.9993 15.6248H10.1243C8.5441 15.6248 7.02858 16.2526 5.91117 17.37C4.79377 18.4874 4.16602 20.0029 4.16602 21.5832V29.4603C4.16602 31.0405 4.79377 32.556 5.91117 33.6734C7.02858 34.7908 8.5441 35.4186 10.1243 35.4186H12.5827V29.8353C12.5799 29.0538 12.7315 28.2795 13.0287 27.5567C13.3258 26.8339 13.7627 26.1769 14.3144 25.6233C14.866 25.0698 15.5214 24.6306 16.2432 24.3309C16.9649 24.0312 17.7387 23.8769 18.5202 23.8769H29.4577C32.7493 23.8769 35.416 21.229 35.416 17.9373V10.1248C35.416 8.54459 34.7883 7.02906 33.6709 5.91166C32.5535 4.79426 31.0379 4.1665 29.4577 4.1665H20.541ZM19.041 7.52067C19.8743 7.52067 20.541 7.77067 20.541 8.99984C20.541 10.229 19.8743 10.8561 19.041 10.8561C18.2285 10.8561 17.5618 10.2311 17.5618 9.00192C17.5618 7.77275 18.2285 7.52067 19.041 7.52067Z" fill="#0288D1"/>
<path d="M37.4152 14.5835V20.1668C37.4177 20.9481 37.2659 21.7222 36.9687 22.4448C36.6714 23.1673 36.2344 23.8241 35.6828 24.3774C35.1312 24.9307 34.4759 25.3698 33.7543 25.6693C33.0327 25.9689 32.259 26.1231 31.4777 26.1231H20.5423C19.7608 26.1203 18.9865 26.2719 18.2637 26.569C17.541 26.8662 16.884 27.3031 16.3304 27.8547C15.7768 28.4064 15.3376 29.0618 15.0379 29.7836C14.7382 30.5053 14.584 31.2791 14.584 32.0606V39.8731C14.584 41.4533 15.2117 42.9689 16.3291 44.0863C17.4465 45.2037 18.9621 45.8314 20.5423 45.8314H29.459C31.0389 45.8314 32.5541 45.2039 33.6714 44.087C34.7888 42.97 35.4168 41.455 35.4173 39.8752V36.3752H26.4777C25.6652 36.3752 25.0007 35.1877 25.0007 34.3752H39.8756C41.4559 34.3752 42.9714 33.7474 44.0888 32.63C45.2062 31.5126 45.834 29.9971 45.834 28.4168V20.5418C45.834 18.9616 45.2062 17.4461 44.0888 16.3287C42.9714 15.2112 41.4559 14.5835 39.8756 14.5835H37.4152ZM17.334 23.9856L17.3257 23.9939L17.4048 23.9856H17.334ZM30.959 39.1439C31.7715 39.1439 32.4381 39.7689 32.4381 40.9981C32.4381 41.1923 32.3999 41.3847 32.3256 41.5641C32.2512 41.7436 32.1423 41.9067 32.0049 42.044C31.8676 42.1814 31.7045 42.2903 31.525 42.3647C31.3456 42.439 31.1532 42.4772 30.959 42.4772C30.1256 42.4772 29.459 42.2272 29.459 40.9981C29.459 39.7689 30.1256 39.1439 30.959 39.1439Z" fill="#FDD835"/>
</svg>
