<svg width="50" height="50" viewBox="0 0 50 50" fill="none" xmlns="http://www.w3.org/2000/svg">
<g clip-path="url(#clip0_479_825)">
<path d="M38.2812 0H11.7188C5.24666 0 0 5.24666 0 11.7188V38.2812C0 44.7533 5.24666 50 11.7188 50H38.2812C44.7533 50 50 44.7533 50 38.2812V11.7188C50 5.24666 44.7533 0 38.2812 0Z" fill="#CD6799"/>
<mask id="mask0_479_825" style="mask-type:luminance" maskUnits="userSpaceOnUse" x="5" y="10" width="40" height="30">
<path d="M5.46875 10.3516H44.5312V39.6307H5.46875V10.3516Z" fill="white"/>
</mask>
<g mask="url(#mask0_479_825)">
<path d="M39.0832 27.1802C37.7211 27.1873 36.5375 27.5154 35.5463 28.0002C35.1827 27.28 34.819 26.6382 34.7547 26.1675C34.6834 25.6185 34.5979 25.2834 34.6834 24.6273C34.769 23.9713 35.1541 23.0373 35.1469 22.966C35.1397 22.8947 35.0614 22.5595 34.277 22.5523C33.4926 22.5451 32.8153 22.7021 32.7368 22.9089C32.6582 23.1156 32.5086 23.5863 32.4088 24.0713C32.2733 24.7843 30.8399 27.33 30.02 28.6634C29.7561 28.1429 29.528 27.6865 29.478 27.3228C29.4067 26.7738 29.3211 26.4386 29.4067 25.7826C29.4922 25.1265 29.8774 24.1923 29.8702 24.1211C29.8629 24.0498 29.7846 23.7146 29.0002 23.7076C28.2159 23.7006 27.5383 23.8572 27.46 24.064C27.3815 24.2709 27.2959 24.7558 27.1319 25.2263C26.968 25.697 25.0641 29.947 24.5649 31.0451C24.3632 31.4895 24.1516 31.9293 23.9303 32.3642C23.9303 32.3642 23.9231 32.3857 23.9018 32.4213C23.8322 32.5576 23.7608 32.6931 23.6877 32.8277V32.8349C23.5809 33.0275 23.4666 33.2056 23.4096 33.2056C23.3668 33.2056 23.2885 32.6923 23.4239 31.9935C23.7092 30.5173 24.3866 28.2213 24.3795 28.1429C24.3795 28.1002 24.5079 27.7007 23.9373 27.4939C23.3811 27.2871 23.1815 27.6295 23.1315 27.6295C23.0817 27.6295 23.0459 27.7507 23.0459 27.7507C23.0459 27.7507 23.6664 25.1693 21.8623 25.1693C20.7356 25.1693 19.1811 26.4029 18.4112 27.5154C17.5356 27.9918 16.6608 28.4695 15.7868 28.9486C15.3663 29.1839 14.9313 29.4193 14.5247 29.6404C14.4961 29.6119 14.4676 29.5761 14.4391 29.5476C12.2571 27.2158 8.22114 25.5687 8.39223 22.4382C8.45649 21.2972 8.84868 18.3023 16.1434 14.6656C22.1475 11.7064 26.9252 12.5263 27.7524 14.3447C28.936 16.9404 25.1924 21.7607 18.9887 22.4595C16.6211 22.7234 15.3805 21.8107 15.0668 21.4685C14.7387 21.1119 14.6887 21.0906 14.5674 21.1619C14.3678 21.2687 14.4961 21.5896 14.5674 21.775C14.753 22.2599 15.5159 23.1156 16.8065 23.5363C17.9475 23.9072 20.7213 24.114 24.0799 22.8162C27.8379 21.3615 30.7758 17.3181 29.9129 13.9312C29.0502 10.4941 23.3456 9.36031 17.9475 11.2785C14.7385 12.4195 11.2588 14.2164 8.7559 16.5552C5.78227 19.3365 5.31176 21.7537 5.50434 22.7662C6.19594 26.3601 11.1518 28.699 13.1342 30.4318C13.0344 30.4888 12.9416 30.5388 12.8633 30.5816C11.8721 31.0736 8.09282 33.0488 7.15141 35.1382C6.08188 37.5056 7.3227 39.2027 8.14262 39.4308C10.6883 40.1369 13.3053 38.8675 14.7102 36.7711C16.1151 34.6746 15.9438 31.9507 15.2948 30.7029C15.2877 30.6872 15.2781 30.6727 15.2663 30.6601C15.5231 30.5103 15.7868 30.3535 16.0436 30.2037C16.5155 29.9248 16.9934 29.6561 17.4768 29.3978C17.2344 30.0611 17.0561 30.8525 16.9706 31.9935C16.8637 33.3341 17.4127 35.074 18.1329 35.7586C18.4538 36.058 18.8317 36.0652 19.0743 36.0652C19.9157 36.0652 20.2936 35.3664 20.7143 34.5392C21.2276 33.5265 21.6913 32.35 21.6913 32.35C21.6913 32.35 21.1135 35.5304 22.6823 35.5304C23.2528 35.5304 23.8303 34.7888 24.0872 34.4109V34.4179C24.0872 34.4179 24.1014 34.3966 24.1299 34.3466C24.187 34.2539 24.2225 34.1968 24.2225 34.1968V34.1826C24.4508 33.7834 24.9641 32.8777 25.7272 31.373C26.7112 29.4336 27.6596 27.0091 27.6596 27.0091C27.6596 27.0091 27.7452 27.6009 28.0375 28.5849C28.2086 29.1627 28.5653 29.7972 28.8504 30.4105C28.6223 30.7314 28.4797 30.9095 28.4797 30.9095L28.4868 30.9168C28.3014 31.1591 28.1018 31.423 27.8807 31.6796C27.1034 32.6068 26.1764 33.6693 26.0481 33.9759C25.8983 34.3396 25.934 34.6033 26.2192 34.8173C26.426 34.9742 26.7967 34.9955 27.1747 34.9742C27.8735 34.9242 28.3657 34.7531 28.6081 34.6461C28.986 34.5107 29.4282 34.3039 29.8416 33.9972C30.6047 33.4339 31.0682 32.6281 31.0254 31.5656C31.004 30.9808 30.8114 30.3963 30.5762 29.847C30.6475 29.7472 30.7116 29.6474 30.7829 29.5476C31.9881 27.7863 32.9221 25.8539 32.9221 25.8539C32.9221 25.8539 33.0077 26.4457 33.3 27.4298C33.4426 27.9289 33.735 28.4709 33.9918 28.9986C32.8581 29.9185 32.1592 30.988 31.9096 31.6869C31.4604 32.9847 31.8098 33.5693 32.4729 33.7048C32.7725 33.7691 33.2002 33.6265 33.5141 33.491C33.9133 33.3627 34.384 33.1416 34.8332 32.8134C35.5961 32.2502 36.3307 31.4658 36.2879 30.4033C36.2665 29.9185 36.1381 29.4406 35.9598 28.9771C36.9225 28.5779 38.1633 28.3568 39.7463 28.5422C43.1407 28.9416 43.811 31.0593 43.6825 31.9507C43.5541 32.842 42.8411 33.3269 42.6057 33.4767C42.3706 33.6265 42.292 33.6763 42.3135 33.7834C42.342 33.9402 42.4561 33.933 42.6557 33.9045C42.9338 33.8547 44.4383 33.1843 44.5026 31.5443C44.6096 29.4478 42.6129 27.1588 39.0832 27.1802ZM12.8989 36.0082C11.7723 37.2345 10.2036 37.6982 9.52602 37.306C8.79868 36.8851 9.08383 35.074 10.4674 33.7761C11.3086 32.9847 12.3926 32.2502 13.1127 31.8009C13.2768 31.7011 13.5192 31.5586 13.8116 31.3802C13.8616 31.3517 13.8901 31.3375 13.8901 31.3375L14.0612 31.2304C14.5674 33.0845 14.0825 34.7175 12.8989 36.0082ZM21.0995 30.4318C20.7073 31.3875 19.8873 33.8332 19.3881 33.6978C18.9604 33.5836 18.6965 31.7297 19.3026 29.897C19.6092 28.9771 20.2581 27.8791 20.636 27.4511C21.2493 26.7666 21.9266 26.5384 22.0907 26.8166C22.2975 27.1802 21.342 29.8328 21.0995 30.4318ZM27.8666 33.6693C27.7026 33.7548 27.5457 33.8119 27.4745 33.7691C27.4245 33.7406 27.5457 33.6265 27.5457 33.6265C27.5457 33.6265 28.3944 32.7136 28.7295 32.3002C28.9219 32.0576 29.1502 31.7724 29.3926 31.4515V31.5443C29.3926 32.6353 28.3373 33.3697 27.8666 33.6693ZM33.0864 32.4783C32.9651 32.3927 32.9866 32.1076 33.393 31.2162C33.5499 30.8668 33.9207 30.2822 34.5553 29.7187C34.6266 29.947 34.6766 30.1679 34.6694 30.3748C34.6623 31.7511 33.6782 32.2644 33.0864 32.4783Z" fill="white"/>
</g>
</g>
<defs>
<clipPath id="clip0_479_825">
<rect width="50" height="50" fill="white"/>
</clipPath>
</defs>
</svg>
