<svg width="50" height="50" viewBox="0 0 50 50" fill="none" xmlns="http://www.w3.org/2000/svg">
<g clip-path="url(#clip0_481_856)">
<path d="M38.2812 0H11.7188C5.24666 0 0 5.24666 0 11.7188V38.2812C0 44.7533 5.24666 50 11.7188 50H38.2812C44.7533 50 50 44.7533 50 38.2812V11.7188C50 5.24666 44.7533 0 38.2812 0Z" fill="#007ACC"/>
<path d="M11.0588 25.1664L11.043 27.2141H17.5508V45.7061H22.1541V27.2141H28.6619V25.2061C28.6619 24.0949 28.6383 23.1664 28.6064 23.1426C28.5826 23.111 24.6223 23.0949 19.8207 23.1029L11.0826 23.1268L11.0588 25.1664ZM40.3471 23.0686C41.6168 23.3861 42.5852 23.9496 43.474 24.8701C43.9344 25.3623 44.6168 26.2592 44.6725 26.4735C44.6883 26.5369 42.5137 27.9973 41.1963 28.8147C41.1486 28.8465 40.958 28.6401 40.7438 28.3227C40.101 27.3861 39.4264 26.9813 38.3945 26.91C36.8787 26.8067 35.9025 27.6004 35.9105 28.9258C35.9105 29.3147 35.966 29.5447 36.1248 29.8623C36.458 30.5527 37.0772 30.9654 39.0217 31.8067C42.601 33.3465 44.1326 34.3623 45.0852 35.8067C46.1486 37.4178 46.3867 39.9893 45.6645 41.902C44.8709 43.9813 42.9025 45.394 40.1326 45.8623C39.2756 46.0131 37.2438 45.9893 36.3232 45.8227C34.3152 45.4654 32.4105 44.4735 31.2359 43.1719C30.7756 42.6639 29.8787 41.3385 29.9344 41.2432C29.958 41.2115 30.1645 41.0846 30.3945 40.9496C30.6168 40.8227 31.4582 40.3385 32.2518 39.8781L33.6883 39.0447L33.9898 39.4893C34.4105 40.132 35.3311 41.0131 35.8867 41.3067C37.4818 42.1481 39.6725 42.0289 40.7518 41.0608C41.2121 40.6401 41.4025 40.2035 41.4025 39.5608C41.4025 38.9813 41.3311 38.7274 41.0295 38.2908C40.6406 37.7354 39.8471 37.267 37.593 36.2908C35.0137 35.1797 33.9025 34.4893 32.8867 33.394C32.2994 32.7592 31.7438 31.7432 31.5137 30.894C31.3232 30.1877 31.2756 28.4178 31.4264 27.7035C31.958 25.2115 33.8391 23.4735 36.5533 22.9574C37.4344 22.7908 39.4818 22.8543 40.3471 23.0686Z" fill="white"/>
</g>
<defs>
<clipPath id="clip0_481_856">
<rect width="50" height="50" fill="white"/>
</clipPath>
</defs>
</svg>
